# xmcd
#
# Track frame offsets:
#	150
#	17122
#	41435
#	92861
#	127370
#	156667
#	188770
#	212301
#	250595
#
# Disc length: 3751 seconds
#
# Revision: 0
# Processed by: cddbd v1.5.2PL0 Copyright (c) Steve Scherf et al.
# Submitted via: audiograbber 1.83.01
#
DISCID=780ea509
DTITLE=Grateful Dead - 93-06-22 Deer Creek Music Centre, Noblesville IN
DYEAR=1900
DGENRE=
TTITLE0=Help On The Way
TTITLE1=Slipknot!
TTITLE2=Franklin's Tower
TTITLE3=Wang Dang Doodle
TTITLE4=High Time
TTITLE5=It's All Over Now
TTITLE6=Just Like Tom Thumb's Blues
TTITLE7=Tennessee Jed
TTITLE8=Picasso Moon
EXTD=
EXTT0=
EXTT1=
EXTT2=
EXTT3=
EXTT4=
EXTT5=
EXTT6=
EXTT7=
EXTT8=
PLAYORDER=
